<svg xmlns="http://www.w3.org/2000/svg" width="32" height="32" fill="none"><rect width="32" height="32" fill="#FC7D1D" rx="8"/><path fill="#000" d="M27 7h-5.596v5.571c0 1.565-1.252 2.865-2.846 2.998a8.13 8.13 0 0 0 .577-2.945v-.61h-5.61v.557c0 1.592-1.293 2.905-2.929 2.998V7H5v18h5.596v-4.032h7.686c1.1 0 2.145-.2 3.122-.558V25H27V7zM10.404 19.853h-.976v4.033H6.155V8.127h3.286v8.57h.976c2.16 0 3.947-1.553 4.236-3.569h3.3a7.219 7.219 0 0 1-2.414 4.785 7.738 7.738 0 0 1-5.135 1.94zm15.441 4.033h-3.286V19.88a8.649 8.649 0 0 0 3.286-3.144v7.15zm0-11.315v.04a7.181 7.181 0 0 1-2.237 5.121 7.718 7.718 0 0 1-5.326 2.121h-3.547a8.642 8.642 0 0 0 3.259-3.17h.288c2.352 0 4.277-1.844 4.277-4.125V8.114h3.286v4.457z"/></svg>